<svg width="14" height="14" viewBox="0 0 14 14" fill="none" xmlns="http://www.w3.org/2000/svg">
<path d="M13.5 1C13.5 0.723859 13.2761 0.500001 13 0.5L8.5 0.500001C8.22386 0.500001 8 0.723858 8 1C8 1.27614 8.22386 1.5 8.5 1.5L12.5 1.5L12.5 5.5C12.5 5.77614 12.7239 6 13 6C13.2761 6 13.5 5.77614 13.5 5.5L13.5 1ZM1.35355 13.3536L2.10355 12.6036L1.39645 11.8964L0.646447 12.6464L1.35355 13.3536ZM3.60355 11.1036L5.10355 9.60355L4.39645 8.89645L2.89645 10.3964L3.60355 11.1036ZM6.60355 8.10355L8.10355 6.60355L7.39645 5.89645L5.89645 7.39645L6.60355 8.10355ZM9.60355 5.10355L11.1036 3.60355L10.3964 2.89645L8.89645 4.39645L9.60355 5.10355ZM12.6036 2.10355L13.3536 1.35355L12.6464 0.646447L11.8964 1.39645L12.6036 2.10355ZM13.5 1C13.5 0.723859 13.2761 0.500001 13 0.5L8.5 0.500001C8.22386 0.500001 8 0.723858 8 1C8 1.27614 8.22386 1.5 8.5 1.5L12.5 1.5L12.5 5.5C12.5 5.77614 12.7239 6 13 6C13.2761 6 13.5 5.77614 13.5 5.5L13.5 1ZM1.35355 13.3536L2.10355 12.6036L1.39645 11.8964L0.646447 12.6464L1.35355 13.3536ZM3.60355 11.1036L5.10355 9.60355L4.39645 8.89645L2.89645 10.3964L3.60355 11.1036ZM6.60355 8.10355L8.10355 6.60355L7.39645 5.89645L5.89645 7.39645L6.60355 8.10355ZM9.60355 5.10355L11.1036 3.60355L10.3964 2.89645L8.89645 4.39645L9.60355 5.10355ZM12.6036 2.10355L13.3536 1.35355L12.6464 0.646447L11.8964 1.39645L12.6036 2.10355Z" fill="white"/>
</svg>
