<svg width="57" height="59" viewBox="0 0 57 59" fill="none" xmlns="http://www.w3.org/2000/svg">
<path d="M11.979 6.67845L18.2692 33.0973M11.979 6.67845L32.1077 19.2588M11.979 6.67845C1.91469 22.6136 -9.91088 54.9872 28.3335 57C36.7204 57 53.7459 50.4582 54.7523 24.291C53.9136 15.0654 45.4428 -2.12783 18.2691 2.90433M18.2692 33.0973L35.7449 45.1118C36.6888 45.7607 37.9382 44.9133 37.6844 43.7963L32.1077 19.2588M18.2692 33.0973L32.1077 19.2588M19.9348 29.7301L29.1091 20.3797C29.6732 19.8048 29.5592 18.8552 28.8751 18.4301L15.8203 10.3187C14.8739 9.73059 13.6866 10.5724 13.9283 11.6601L17.8087 29.122C18.0252 30.0963 19.2358 30.4426 19.9348 29.7301Z" stroke="white" stroke-width="2.51608"/>
</svg>
