<svg width="272" height="31" viewBox="0 0 272 31" fill="none" xmlns="http://www.w3.org/2000/svg">
<path d="M1 19.2917C1.62198 11.6833 4.1161 1.03165 9.11679 19.2917C14.1175 37.5518 19.2861 26.9001 21.2453 19.2917C23.1424 10.9096 28.3359 -1.6764 33.9337 15.0362C39.5314 31.7488 45.7201 24.8368 48.1147 19.2917C51.4734 10.0069 59.7954 -3.84285 66.2142 15.0362C72.55 33.671 79.4069 25.9465 82.1553 19.5428C82.2273 19.3749 82.2799 19.2047 82.3195 19.0264C84.3529 9.876 89.5692 -3.35479 94.6697 15.0362C99.8196 33.6057 104.652 25.6105 106.425 19.2917C108.353 13.3598 114.038 5.05508 121.352 19.2917C128.667 33.5283 134.165 22.3866 136 15.0362M136 15.0348C136.622 7.42642 139.116 -3.22528 144.117 15.0348C149.117 33.2948 154.286 22.6431 156.245 15.0348C158.142 6.65269 163.336 -5.93335 168.934 10.7792C174.531 27.4918 180.72 20.5798 183.115 15.0348C186.473 5.75 194.795 -8.09979 201.214 10.7792C207.555 29.4295 214.418 21.6767 217.162 15.2699C217.23 15.1124 217.286 14.9189 217.339 14.6835C219.385 5.53667 224.585 -7.55425 229.67 10.7792C234.82 29.3488 239.652 21.3536 241.425 15.0348C243.353 9.10285 249.038 0.798158 256.352 15.0348C263.667 29.2714 269.165 18.1297 271 10.7792" stroke="#7F1AFF" stroke-width="1.52843"/>
</svg>
