<svg width="517" height="30" viewBox="0 0 517 30" fill="none" xmlns="http://www.w3.org/2000/svg">
<path opacity="0.5" d="M1 18.9177C2.18636 11.3093 6.94368 0.657625 16.482 18.9177C26.0204 37.1777 35.8791 26.526 39.6161 18.9177C43.2345 10.5356 53.1406 -2.05043 63.8179 14.6622C74.4952 31.3748 86.2995 24.4627 90.867 18.9177C97.2733 9.6329 113.147 -4.21687 125.39 14.6622C137.427 33.2234 150.451 25.633 155.734 19.2446C155.913 19.0274 156.051 18.7893 156.162 18.5301C160.076 9.38497 169.981 -3.64706 179.666 14.6622C189.489 33.2317 198.707 25.2365 202.088 18.9177C205.766 12.9858 216.61 4.68106 230.561 18.9177C244.513 33.1543 255 22.0126 258.5 14.6622M258.5 14.6608C259.686 7.0524 264.444 -3.5993 273.982 14.6608C283.52 32.9208 293.379 22.2691 297.116 14.6608C300.735 6.27866 310.641 -6.30737 321.318 10.4052C331.995 27.1178 343.799 20.2058 348.367 14.6608C354.773 5.37598 370.647 -8.47382 382.89 10.4052C394.985 29.0555 408.076 21.3027 413.309 14.8959C413.438 14.7384 413.546 14.5449 413.646 14.3095C417.55 5.16265 427.468 -7.92827 437.166 10.4052C446.989 28.9747 456.207 20.9795 459.588 14.6608C463.266 8.72883 474.11 0.424135 488.061 14.6608C502.013 28.8974 512.5 17.7557 516 10.4052" stroke="white" stroke-width="1.52843"/>
</svg>
