<svg width="24" height="24" viewBox="0 0 24 24" fill="none" xmlns="http://www.w3.org/2000/svg">
<path d="M12.1322 22.6265C19.6644 21.9091 22.8924 17.2463 22.8924 12.6732C22.8924 8.10008 20.1127 1.28523 11.6838 1.3749C4.9407 1.44663 1.87999 7.26317 1.19252 10.1625C0.344808 18.4276 6.03634 21.7478 9.12147 22.4179C9.21101 22.4374 9.3016 22.4083 9.36639 22.3435V22.3435C9.41508 22.2948 9.44375 22.2296 9.44674 22.1608L9.50849 20.7406C9.52143 20.443 9.29443 20.1896 8.99726 20.1698L8.23565 20.119C8.2031 20.1168 8.17105 20.1121 8.13969 20.1031C7.75876 19.9941 6.96435 19.6167 6.48301 18.8604C6.06842 18.2089 5.7883 17.7978 5.65276 17.607C5.60942 17.5459 5.5528 17.4962 5.48781 17.459L4.95864 17.1567C4.60726 16.9517 4.13541 16.5459 4.9931 16.5295C5.0292 16.5288 5.06592 16.5323 5.10118 16.5401C5.57136 16.6433 6.51713 16.963 6.93136 17.5153C7.46937 18.2327 8.18672 18.7707 8.5454 18.681C8.90408 18.5914 9.7111 18.7707 9.7111 18.2327C9.7111 17.6947 9.9801 17.067 10.1594 17.067C10.3388 17.067 6.30367 16.7083 5.76566 13.5699C5.42954 11.6092 5.9465 10.3958 6.44537 9.80173C6.6368 9.57375 6.72049 9.23951 6.61188 8.96233C6.38587 8.38555 6.23301 7.59774 6.59419 7.03976C6.68085 6.90587 6.84359 6.85037 7.00204 6.86862C7.67025 6.94558 8.67336 7.15801 9.24597 7.5794C9.49899 7.7656 9.85696 7.88974 10.1552 7.79096C11.0415 7.49741 12.5327 7.28513 14.1343 7.84645C14.3811 7.93293 14.6606 7.85373 14.8532 7.67686C15.2776 7.28707 16.0446 6.82044 17.1162 6.75708M17.1536 6.75504C17.1411 6.75567 17.1286 6.75635 17.1162 6.75708M17.1162 6.75708C17.3945 7.1572 17.7926 8.11551 17.4131 9.03164C17.3283 9.23627 17.3266 9.4722 17.4421 9.66119C18.6852 11.6956 19.5443 15.5485 14.2409 16.9425C14.1538 16.9653 14.0588 16.9559 13.9691 16.963C13.8864 16.9696 13.8315 17.0156 13.9255 17.1567C14.0913 17.4053 14.7166 18.3432 14.6688 18.8379C14.6615 18.9139 14.6443 18.9894 14.647 19.0657L14.7326 21.4608" stroke="#7100FF"/>
</svg>
