<svg width="31" height="29" viewBox="0 0 31 29" fill="none" xmlns="http://www.w3.org/2000/svg">
<path d="M17.5231 1.38072C20.1081 1.27072 25.2493 2.71266 28.2872 8.66128C29.6589 11.3471 30.114 14.4969 29.2481 17.3857C27.8609 22.0136 23.8289 27.2736 14.342 27.625C10.6307 27.3599 2.77065 24.7222 1.02103 16.2922C0.755939 12.6472 2.88994 4.80044 13.5467 2.57365" stroke="#7100FF" stroke-width="0.898708"/>
<path d="M11.5591 11.123C12.2218 12.6473 13.9847 14.8211 15.7343 11.3219" stroke="#7100FF" stroke-width="0.898708"/>
<path d="M18.7158 10.5264C19.3786 12.0507 21.1414 14.2244 22.891 10.7252" stroke="#7100FF" stroke-width="0.898708"/>
<path d="M7.97981 18.8768C9.83547 20.9313 14.8988 23.9666 20.3067 19.6721M6.19043 18.8768C7.2508 19.2082 9.13297 19.1949 8.17863 16.491" stroke="#7100FF" stroke-width="0.898708"/>
</svg>
