<svg width="27" height="55" viewBox="0 0 27 55" fill="none" xmlns="http://www.w3.org/2000/svg">
<path d="M25.2223 1.5C20.4211 2.18589 17.4385 2.61196 13.1386 3.22624C11.2494 3.40724 10.2591 5.63243 10 6.7224C7.21221 15.9436 5.36145 22.0653 2.41067 31.8256C2.28838 32.2301 2.64887 32.6162 3.06066 32.5212L9.94364 30.9328C10.3753 30.8332 10.7415 31.2586 10.5789 31.6706L2.52929 52.063C2.2893 52.6709 3.12103 53.1154 3.49309 52.578L24.6248 22.0544C24.8773 21.6896 24.6162 21.1914 24.1726 21.1914H17.3491C16.9254 21.1914 16.6608 20.7325 16.8731 20.3658L23.8643 8.29012" stroke="white" stroke-width="2.84" stroke-linejoin="round"/>
</svg>
