<svg width="62" height="70" viewBox="0 0 62 70" fill="none" xmlns="http://www.w3.org/2000/svg">
<path d="M16.9526 47.9841L2.41808 61.0652M1.99951 61.4419L2.41808 61.0652M2.41808 61.0652L2.17978 62.9823C2.06603 63.8974 2.38081 64.8138 3.03287 65.4659L5.17849 67.6115C5.97948 68.4125 7.16427 68.6922 8.2389 68.334L10.3016 67.6464C10.7421 67.4996 11.1423 67.2522 11.4706 66.9239L25.0571 53.3374C26.3175 52.077 26.2025 50.0009 24.8107 48.8874L22.5524 47.0808C21.1605 45.9673 21.0455 43.8912 22.3059 42.6308L29.791 35.1457C30.9589 33.9778 30.9465 32.0904 29.9338 30.7856C26.4134 26.2499 23.3622 19.1148 30.4104 15.0873C40.8776 9.10604 43.8682 9.10604 54.3354 15.0873C62.5676 19.7914 59.9127 28.7348 57.4526 32.8245C57.3684 32.9645 57.2968 33.1032 57.2311 33.2528C54.6213 39.2034 45.2949 48.6257 27.8454 40.7035C27.5677 40.5774 27.3084 40.4074 27.0875 40.1971C21.1162 34.513 12.6863 20.8489 24.4292 9.10604C36.3917 -2.85644 49.351 3.1248 54.3354 7.61073" stroke="white" stroke-width="2.99062"/>
</svg>
